<svg xmlns="http://www.w3.org/2000/svg" width="24" height="24" fill="none"><path fill="#000" fill-rule="evenodd" d="M3.5 4.005a1 1 0 0 1 1.003-1l15 .05a1 1 0 0 1 .997 1v11.504a1 1 0 0 1-1 1h-4a.5.5 0 0 0-.354.147L12 19.852l-3.146-3.146a.5.5 0 0 0-.354-.147h-4a1 1 0 0 1-1-1V4.005Zm1.007-2a2 2 0 0 0-2.007 2v11.554a2 2 0 0 0 2 2h3.793l3.353 3.354a.5.5 0 0 0 .708 0l3.353-3.354H19.5a2 2 0 0 0 2-2V4.054a2 2 0 0 0-1.993-2l-15-.049Z" clip-rule="evenodd"/><path fill="#000" fill-rule="evenodd" d="M12.121 5.716a3.5 3.5 0 0 1 4.597 5.259l-4.243 4.242a.5.5 0 0 1-.707 0l-4.243-4.242a3.5 3.5 0 0 1 4.596-5.26Zm3.89 1.016a2.5 2.5 0 0 0-3.536 0 .5.5 0 0 1-.707 0 2.5 2.5 0 0 0-3.536 3.536l3.89 3.889 3.888-3.89a2.5 2.5 0 0 0 0-3.535Z" clip-rule="evenodd"/></svg>